<?xml version="1.0" ?>

<!DOCTYPE svg  PUBLIC '-//W3C//DTD SVG 1.1//EN'  'http://www.w3.org/Graphics/SVG/1.1/DTD/svg11.dtd'>

<!-- Uploaded to: SVG Repo, www.svgrepo.com, Generator: SVG Repo Mixer Tools -->
<svg fill="#000000" width="800px" height="800px" viewBox="0 0 100 100" version="1.1" xml:space="preserve"
     xmlns="http://www.w3.org/2000/svg">

<g id="_x31_"/>

<g id="_x32_"/>

<g id="_x33_"/>

<g id="_x34_"/>

<g id="_x35_"/>

<g id="_x36_"/>

<g id="_x37_"/>

<g id="_x38_"/>

<g id="_x39_"/>

<g id="_x31_0"/>

<g id="_x31_1"/>

<g id="_x31_2"/>

<g id="_x31_3"/>

<g id="_x31_4"/>

<g id="_x31_5">

<path d="M59.3,88.2H39.7c-0.8,0-1.4-0.6-1.5-1.4l-4.7-49.4c0-0.4,0.1-0.8,0.4-1.2s0.7-0.5,1.1-0.5h29.1c0.4,0,0.8,0.2,1.1,0.5   s0.4,0.7,0.4,1.2l-4.7,49.4C60.8,87.6,60.1,88.2,59.3,88.2z M41.1,85.2H58l4.4-46.4H36.7L41.1,85.2z M69.3,88.2h-10   c-0.4,0-0.8-0.2-1.1-0.5s-0.4-0.7-0.4-1.2l4.7-49.4c0.1-0.8,0.7-1.4,1.5-1.4h10c0.4,0,0.8,0.2,1.1,0.5s0.4,0.7,0.4,1.2l-4.7,49.4   C70.8,87.6,70.1,88.2,69.3,88.2z M61,85.2h7l4.4-46.4h-7L61,85.2z M59.3,88.2H39.7c-0.8,0-1.4-0.6-1.5-1.4l-4.7-49.4   c0-0.4,0.1-0.8,0.4-1.2s0.7-0.5,1.1-0.5h29.1c0.4,0,0.8,0.2,1.1,0.5s0.4,0.7,0.4,1.2l-4.7,49.4C60.8,87.6,60.1,88.2,59.3,88.2z    M41.1,85.2H58l4.4-46.4H36.7L41.1,85.2z M39.7,88.2h-10c-0.8,0-1.4-0.6-1.5-1.4l-4.7-49.4c0-0.4,0.1-0.8,0.4-1.2s0.7-0.5,1.1-0.5   h10c0.8,0,1.4,0.6,1.5,1.4l4.7,49.4c0,0.4-0.1,0.8-0.4,1.2S40.2,88.2,39.7,88.2z M31.1,85.2h7l-4.4-46.4h-7L31.1,85.2z M59.3,88.2   H39.7c-0.8,0-1.4-0.6-1.5-1.4l-4.7-49.4c0-0.4,0.1-0.8,0.4-1.2s0.7-0.5,1.1-0.5h29.1c0.4,0,0.8,0.2,1.1,0.5s0.4,0.7,0.4,1.2   l-4.7,49.4C60.8,87.6,60.1,88.2,59.3,88.2z M41.1,85.2H58l4.4-46.4H36.7L41.1,85.2z M71.4,38.8H27.7c-3.1,0-5.6-2.5-5.6-5.6   c0-1.7,0.8-3.3,2.1-4.3c-0.7-1.3-1-2.7-1-4.2c0-4.9,3.9-8.9,8.7-9.1c2.2-3.7,6.1-5.9,10.4-5.9c2.7,0,5.3,0.9,7.4,2.5   c2.1-1.7,4.7-2.5,7.4-2.5c4.3,0,8.3,2.3,10.4,6c4.6,0.5,8.2,4.4,8.2,9.1c0,1.5-0.3,2.9-1,4.2c1.3,1,2.1,2.6,2.1,4.3   C76.9,36.3,74.4,38.8,71.4,38.8z M32.4,18.6c-3.4,0-6.2,2.8-6.2,6.2c0,1.4,0.4,2.7,1.3,3.8c0.3,0.4,0.4,0.9,0.3,1.3   c-0.1,0.5-0.5,0.8-0.9,1c-1,0.4-1.7,1.3-1.7,2.4c0,1.4,1.2,2.6,2.6,2.6h43.7c1.4,0,2.6-1.2,2.6-2.6c0-1.1-0.7-2-1.7-2.4   c-0.5-0.2-0.8-0.5-0.9-1c-0.1-0.5,0-1,0.3-1.3c0.8-1.1,1.3-2.4,1.3-3.8c0-3.4-2.8-6.2-6.2-6.2c-0.6,0-1.1-0.3-1.4-0.8   c-1.6-3.1-4.7-5.1-8.2-5.1c-2.4,0-4.7,0.9-6.4,2.6c-0.6,0.6-1.5,0.6-2.1,0c-1.7-1.7-4-2.6-6.4-2.6c-3.5,0-6.6,2-8.2,5.1   c-0.3,0.5-0.8,0.9-1.4,0.8l-0.1,0C32.5,18.6,32.4,18.6,32.4,18.6z M43.8,29.3c0.6-0.6,0.6-1.5,0-2.1c-1.9-2-4-2.9-6.1-2.8   c-3.3,0.1-5.5,2.8-5.6,2.9c-0.5,0.6-0.4,1.6,0.2,2.1c0.6,0.5,1.6,0.4,2.1-0.2c0,0,1.5-1.7,3.4-1.8c1.3,0,2.6,0.6,3.8,1.9   c0.3,0.3,0.7,0.5,1.1,0.5C43.2,29.7,43.5,29.5,43.8,29.3z M66.1,29.3c0.6-0.6,0.6-1.5,0-2.1c-1.9-2-4-2.9-6.1-2.8   c-3.3,0.1-5.5,2.8-5.6,2.9c-0.5,0.6-0.4,1.6,0.2,2.1c0.6,0.5,1.6,0.4,2.1-0.2c0,0,1.5-1.7,3.4-1.8c1.3,0,2.6,0.6,3.8,1.9   c0.3,0.3,0.7,0.5,1.1,0.5C65.4,29.7,65.8,29.5,66.1,29.3z M49.4,73.2c-7.6,0-13.8-6.1-13.8-13.6S41.8,46,49.4,46   c7.6,0,13.8,6.1,13.8,13.6S57,73.2,49.4,73.2z M49.4,49c-5.9,0-10.8,4.8-10.8,10.6s4.8,10.6,10.8,10.6c5.9,0,10.8-4.8,10.8-10.6   S55.3,49,49.4,49z"/>

</g>

<g id="_x31_6"/>

<g id="_x31_7"/>

<g id="_x31_8"/>

<g id="_x31_9"/>

<g id="_x32_0"/>

<g id="_x32_1"/>

<g id="_x32_2"/>

<g id="_x32_3"/>

<g id="_x32_4"/>

</svg>