<?xml version="1.0" ?>

<!DOCTYPE svg  PUBLIC '-//W3C//DTD SVG 1.1//EN'  'http://www.w3.org/Graphics/SVG/1.1/DTD/svg11.dtd'>

<!-- Uploaded to: SVG Repo, www.svgrepo.com, Generator: SVG Repo Mixer Tools -->
<svg fill="#000000" width="800px" height="800px" viewBox="0 0 100 100" version="1.1" xml:space="preserve"
     xmlns="http://www.w3.org/2000/svg">

<g id="_x31_"/>

<g id="_x32_"/>

<g id="_x33_"/>

<g id="_x34_"/>

<g id="_x35_"/>

<g id="_x36_"/>

<g id="_x37_"/>

<g id="_x38_"/>

<g id="_x39_"/>

<g id="_x31_0"/>

<g id="_x31_1"/>

<g id="_x31_2"/>

<g id="_x31_3"/>

<g id="_x31_4"/>

<g id="_x31_5"/>

<g id="_x31_6"/>

<g id="_x31_7"/>

<g id="_x31_8"/>

<g id="_x31_9">

<path d="M83.1,37c-1.1,0-2.1-0.3-3-0.9c-7-4.3-18-9.5-30.7-9.5c-12.5,0-22.9,5-29.4,9.2c-1.4,0.9-3,1.1-4.5,0.8   c-1.6-0.4-2.9-1.4-3.7-2.8c-1.5-2.5-0.8-5.7,1.5-7.5c6.3-5,19.4-13.3,36.2-13.3c16.8,0,30.6,8.4,37.3,13.4c2.4,1.8,3,5,1.6,7.6v0   l-0.1,0.1c-0.8,1.4-2.1,2.4-3.6,2.7C84.1,36.9,83.6,37,83.1,37z M49.4,23.6c13.4,0,25,5.4,32.3,9.9c0.6,0.4,1.4,0.5,2.1,0.3   c0.7-0.2,1.4-0.7,1.8-1.3l0.1-0.1c0.7-1.2,0.4-2.8-0.7-3.7C79.7,24.9,65.9,16,49.4,16c-16.5,0-29.5,8.9-34.3,12.7   c-1.1,0.9-1.4,2.4-0.7,3.7c0.4,0.7,1,1.2,1.8,1.3c0.8,0.2,1.5,0.1,2.2-0.4C25.2,28.9,36.2,23.6,49.4,23.6z M50,89.8   c-1.7,0-3.3-0.9-4.3-2.5L16,36.9c-0.4-0.7-0.2-1.5,0.4-2c5.8-4.3,17.9-11.4,33-11.4c15.2,0,27.9,7.2,34.1,11.5   c0.6,0.4,0.8,1.3,0.4,2L54.3,87.3C53.4,88.9,51.8,89.8,50,89.8C50,89.8,50,89.8,50,89.8z M19.3,36.5l29.1,49.3c0.4,0.6,1,1,1.7,1   c0.7,0,1.3-0.4,1.7-1l29-49.1c-6.2-4.1-17.7-10.2-31.2-10.2C36.1,26.5,25.2,32.4,19.3,36.5z M37.7,51.9c-5.3,0-9.6-4.3-9.6-9.6   c0-5.3,4.3-9.6,9.6-9.6s9.6,4.3,9.6,9.6C47.3,47.6,43,51.9,37.7,51.9z M37.7,35.7c-3.6,0-6.6,2.9-6.6,6.6c0,3.6,2.9,6.6,6.6,6.6   s6.6-2.9,6.6-6.6C44.3,38.7,41.3,35.7,37.7,35.7z M62.2,54.5c-2.9,0-5.2-2.3-5.2-5.2s2.3-5.2,5.2-5.2s5.2,2.3,5.2,5.2   S65.1,54.5,62.2,54.5z M62.2,47.1c-1.2,0-2.2,1-2.2,2.2s1,2.2,2.2,2.2s2.2-1,2.2-2.2S63.4,47.1,62.2,47.1z M49.5,72.5   c-2.9,0-5.2-2.3-5.2-5.2s2.3-5.2,5.2-5.2s5.2,2.3,5.2,5.2S52.4,72.5,49.5,72.5z M49.5,65.1c-1.2,0-2.2,1-2.2,2.2s1,2.2,2.2,2.2   s2.2-1,2.2-2.2S50.7,65.1,49.5,65.1z"/>

</g>

<g id="_x32_0"/>

<g id="_x32_1"/>

<g id="_x32_2"/>

<g id="_x32_3"/>

<g id="_x32_4"/>

</svg>