<?xml version="1.0" ?>

<!DOCTYPE svg  PUBLIC '-//W3C//DTD SVG 1.1//EN'  'http://www.w3.org/Graphics/SVG/1.1/DTD/svg11.dtd'>

<!-- Uploaded to: SVG Repo, www.svgrepo.com, Generator: SVG Repo Mixer Tools -->
<svg fill="#000000" width="800px" height="800px" viewBox="0 0 100 100" version="1.1" xml:space="preserve"
     xmlns="http://www.w3.org/2000/svg">

<g id="_x31_"/>

<g id="_x32_"/>

<g id="_x33_"/>

<g id="_x34_"/>

<g id="_x35_"/>

<g id="_x36_"/>

<g id="_x37_"/>

<g id="_x38_"/>

<g id="_x39_"/>

<g id="_x31_0"/>

<g id="_x31_1"/>

<g id="_x31_2"/>

<g id="_x31_3">

<path d="M89.7,70.4h-6.1H16.4h-6.1c-0.8,0-1.5,0.7-1.5,1.5s0.7,1.5,1.5,1.5h4.6v6.4c0,4.5,3.7,8.2,8.2,8.2h53.8   c4.5,0,8.2-3.7,8.2-8.2v-6.4h4.6c0.8,0,1.5-0.7,1.5-1.5S90.5,70.4,89.7,70.4z M82.1,79.8c0,2.9-2.3,5.2-5.2,5.2H23.1   c-2.9,0-5.2-2.3-5.2-5.2v-6.4h64.1V79.8z M82.5,71.8L78.2,38v0l-1-7.5c-0.4-2.8-2.8-4.9-5.6-4.9H28.4c-2.8,0-5.2,2.1-5.6,4.9   l-1,7.5v0l-4.4,33.7c-0.1,0.4,0.1,0.9,0.4,1.2c0.3,0.3,0.7,0.5,1.1,0.5h62c0.4,0,0.8-0.2,1.1-0.5C82.4,72.6,82.6,72.2,82.5,71.8z    M25.8,31c0.2-1.3,1.3-2.3,2.6-2.3h43.2c1.3,0,2.5,1,2.6,2.3l0.7,5.8h-8.9c-0.8,0-1.5,0.7-1.5,1.5v3c0,2.5-2.1,4.6-4.6,4.6   c-2.5,0-4.6-2.1-4.6-4.6v-3c0-0.8-0.7-1.5-1.5-1.5H42.8c-0.8,0-1.5,0.7-1.5,1.5V52c0,2.1-1.7,3.8-3.9,3.8c-2.1,0-3.8-1.7-3.8-3.8   V38.2c0-0.8-0.7-1.5-1.5-1.5h-7L25.8,31z M20.7,70.4l4-30.7h5.9V52c0,3.8,3.1,6.8,6.9,6.8c3.8,0,6.8-3.1,6.8-6.8V39.7h8.1v1.5v0   c0,4.2,3.4,7.6,7.6,7.6c4.2,0,7.6-3.4,7.6-7.6v-1.5h7.8l4,30.7H20.7z M55.4,12.1c0.8,0.1,1.6-0.4,1.7-1.2c0.1-0.8-0.4-1.6-1.2-1.7   c-2.2-0.4-3.6,0.3-4.4,1c-1.2,1-1.7,2.5-2,3.7C45.9,14,43,17,43,20.7c0,3.9,3.1,7,7,7s7-3.1,7-7c0-3-1.8-5.5-4.4-6.5   c0.1-0.7,0.4-1.4,0.9-1.8C53.6,12.3,54.1,11.8,55.4,12.1z M54,20.7c0,2.2-1.8,4-4,4s-4-1.8-4-4s1.8-4,4-4S54,18.5,54,20.7z"/>

</g>

<g id="_x31_4"/>

<g id="_x31_5"/>

<g id="_x31_6"/>

<g id="_x31_7"/>

<g id="_x31_8"/>

<g id="_x31_9"/>

<g id="_x32_0"/>

<g id="_x32_1"/>

<g id="_x32_2"/>

<g id="_x32_3"/>

<g id="_x32_4"/>

</svg>