<?xml version="1.0" ?>

<!DOCTYPE svg  PUBLIC '-//W3C//DTD SVG 1.1//EN'  'http://www.w3.org/Graphics/SVG/1.1/DTD/svg11.dtd'>

<!-- Uploaded to: SVG Repo, www.svgrepo.com, Generator: SVG Repo Mixer Tools -->
<svg fill="#000000" width="800px" height="800px" viewBox="0 0 100 100" version="1.1" xml:space="preserve"
     xmlns="http://www.w3.org/2000/svg">

<g id="_x31_"/>

<g id="_x32_"/>

<g id="_x33_">

<path d="M76.8,67.6h-3.3V29.9c0-10.2-8.3-18.5-18.5-18.5H44.3c-10.2,0-18.5,8.3-18.5,18.5v37.7h-2.7c-0.8,0-1.5,0.7-1.5,1.5   s0.7,1.5,1.5,1.5h4.2h16.4v16.5c0,0.8,0.7,1.5,1.5,1.5h9.5c0.8,0,1.5-0.7,1.5-1.5V70.6H72h4.8c0.8,0,1.5-0.7,1.5-1.5   S77.7,67.6,76.8,67.6z M53.2,85.6h-6.5v-15h6.5V85.6z M54.7,67.6h-9.5H28.9V29.9c0-8.5,6.9-15.5,15.5-15.5H55   c8.5,0,15.5,6.9,15.5,15.5v37.7H54.7z M41.8,54.9c-2.3,0-4.1-1.9-4.1-4.1v-16c0-2.3,1.9-4.1,4.1-4.1s4.1,1.9,4.1,4.1v16   C45.9,53,44,54.9,41.8,54.9z M41.8,33.6c-0.6,0-1.1,0.5-1.1,1.1v16c0,0.6,0.5,1.1,1.1,1.1s1.1-0.5,1.1-1.1v-16   C42.9,34.1,42.4,33.6,41.8,33.6z M57.8,54.9c-2.3,0-4.1-1.9-4.1-4.1v-16c0-2.3,1.9-4.1,4.1-4.1s4.1,1.9,4.1,4.1v16   C61.9,53,60,54.9,57.8,54.9z M57.8,33.6c-0.6,0-1.1,0.5-1.1,1.1v16c0,0.6,0.5,1.1,1.1,1.1s1.1-0.5,1.1-1.1v-16   C58.9,34.1,58.4,33.6,57.8,33.6z"/>

</g>

<g id="_x34_"/>

<g id="_x35_"/>

<g id="_x36_"/>

<g id="_x37_"/>

<g id="_x38_"/>

<g id="_x39_"/>

<g id="_x31_0"/>

<g id="_x31_1"/>

<g id="_x31_2"/>

<g id="_x31_3"/>

<g id="_x31_4"/>

<g id="_x31_5"/>

<g id="_x31_6"/>

<g id="_x31_7"/>

<g id="_x31_8"/>

<g id="_x31_9"/>

<g id="_x32_0"/>

<g id="_x32_1"/>

<g id="_x32_2"/>

<g id="_x32_3"/>

<g id="_x32_4"/>

</svg>