<?xml version="1.0" ?>

<!DOCTYPE svg  PUBLIC '-//W3C//DTD SVG 1.1//EN'  'http://www.w3.org/Graphics/SVG/1.1/DTD/svg11.dtd'>

<!-- Uploaded to: SVG Repo, www.svgrepo.com, Generator: SVG Repo Mixer Tools -->
<svg fill="#000000" width="800px" height="800px" viewBox="0 0 100 100" version="1.1" xml:space="preserve"
     xmlns="http://www.w3.org/2000/svg">

<g id="_x31_"/>

<g id="_x32_"/>

<g id="_x33_"/>

<g id="_x34_"/>

<g id="_x35_"/>

<g id="_x36_"/>

<g id="_x37_"/>

<g id="_x38_"/>

<g id="_x39_"/>

<g id="_x31_0"/>

<g id="_x31_1"/>

<g id="_x31_2"/>

<g id="_x31_3"/>

<g id="_x31_4"/>

<g id="_x31_5"/>

<g id="_x31_6"/>

<g id="_x31_7"/>

<g id="_x31_8"/>

<g id="_x31_9"/>

<g id="_x32_0"/>

<g id="_x32_1"/>

<g id="_x32_2"/>

<g id="_x32_3"/>

<g id="_x32_4">

<path d="M31.6,55.9c-0.4,0-0.8-0.1-1.1-0.4c-0.6-0.6-0.6-1.5,0-2.1l13-13c0.6-0.6,1.5-0.6,2.1,0s0.6,1.5,0,2.1l-13,13   C32.4,55.7,32,55.9,31.6,55.9z M44.2,68.5l13-13c0.6-0.6,0.6-1.5,0-2.1s-1.5-0.6-2.1,0l-13,13c-0.6,0.6-0.6,1.5,0,2.1   c0.3,0.3,0.7,0.4,1.1,0.4S44,68.8,44.2,68.5z M86.9,79.3c0,0.8-0.7,1.5-1.5,1.5h-7.7h-10h-47h-6.2c-0.8,0-1.5-0.7-1.5-1.5   s0.7-1.5,1.5-1.5h4.7V43.2c-4.9-2.6-7.5-5.9-7.5-9.4c0-8.2,14.3-14.6,32.5-14.6c1.6,0,3.3,0.1,5,0.2c1.7-0.1,3.4-0.2,5-0.2   c18.2,0,32.5,6.4,32.5,14.6c0,3.6-2.6,6.8-7.5,9.4v34.5h6.2C86.2,77.8,86.9,78.4,86.9,79.3z M22.3,42.3v35.4h44V42.3   c0-0.6,0.3-1.1,0.8-1.3c4.3-2.1,6.6-4.6,6.6-7.2c0-5.4-10.8-10.4-24.6-11.4c-1.6-0.1-3.3-0.2-4.9-0.2c-17.6,0-29.5,6-29.5,11.6   c0,2.5,2.4,5.1,6.6,7.2C22,41.2,22.3,41.8,22.3,42.3z M76.2,77.8V42.3c0-0.6,0.3-1.1,0.8-1.3c4.3-2.1,6.6-4.6,6.6-7.2   c0-4-6.2-8.3-16.2-10.3c0.1,0,0.2,0.1,0.3,0.1c0.2,0.1,0.4,0.2,0.6,0.3c0.1,0.1,0.3,0.1,0.4,0.2c0.2,0.1,0.4,0.2,0.6,0.3   c0.1,0.1,0.2,0.1,0.4,0.2c0.2,0.1,0.4,0.2,0.6,0.3c0.1,0.1,0.2,0.1,0.3,0.2c0.2,0.1,0.4,0.2,0.5,0.3c0.1,0.1,0.2,0.1,0.3,0.2   c0.2,0.1,0.4,0.3,0.5,0.4c0.1,0.1,0.2,0.1,0.2,0.2c0.2,0.2,0.4,0.3,0.6,0.5c0,0,0.1,0,0.1,0.1c0.2,0.2,0.5,0.4,0.7,0.6   c0,0,0.1,0.1,0.1,0.1c0.2,0.2,0.3,0.3,0.5,0.5c0.1,0.1,0.1,0.1,0.2,0.2c0.1,0.1,0.2,0.3,0.3,0.4c0.1,0.1,0.1,0.2,0.2,0.3   c0.1,0.1,0.2,0.3,0.3,0.4c0.1,0.1,0.1,0.2,0.2,0.3c0.1,0.1,0.2,0.3,0.2,0.4c0.1,0.1,0.1,0.2,0.2,0.3c0.1,0.1,0.1,0.3,0.2,0.4   c0,0.1,0.1,0.2,0.1,0.3c0.1,0.1,0.1,0.3,0.2,0.4c0,0.1,0.1,0.2,0.1,0.3c0,0.1,0.1,0.3,0.1,0.4c0,0.1,0,0.2,0.1,0.3   c0,0.2,0.1,0.3,0.1,0.5c0,0.1,0,0.2,0,0.2c0,0.2,0,0.5,0,0.7c0,3.6-2.6,6.8-7.5,9.4v34.5H76.2z"/>

</g>

</svg>