<?xml version="1.0" ?>

<!DOCTYPE svg  PUBLIC '-//W3C//DTD SVG 1.1//EN'  'http://www.w3.org/Graphics/SVG/1.1/DTD/svg11.dtd'>

<!-- Uploaded to: SVG Repo, www.svgrepo.com, Generator: SVG Repo Mixer Tools -->
<svg fill="#000000" width="800px" height="800px" viewBox="0 0 100 100" version="1.1" xml:space="preserve"
     xmlns="http://www.w3.org/2000/svg">

<g id="_x31_"/>

<g id="_x32_"/>

<g id="_x33_"/>

<g id="_x34_"/>

<g id="_x35_"/>

<g id="_x36_"/>

<g id="_x37_"/>

<g id="_x38_"/>

<g id="_x39_"/>

<g id="_x31_0"/>

<g id="_x31_1"/>

<g id="_x31_2"/>

<g id="_x31_3"/>

<g id="_x31_4"/>

<g id="_x31_5"/>

<g id="_x31_6">

<path d="M78.7,74.3H21.3c-2.6,0-4.9-1.3-6.4-3.4c0,0,0,0,0-0.1c-0.9-1.3-1.3-2.8-1.3-4.3c0-7,2-13.7,5.7-19.6   c1.4-2.2,3.1-4.3,5-6.2c0.3-0.3,0.6-0.6,1-0.9c0.1-0.1,0.2-0.2,0.2-0.2l0.1-0.1c2-1.8,4.1-3.3,6.3-4.6c3.1-1.8,6.5-3.1,10-3.9   c2.6-0.6,5.3-0.9,8.1-0.9h0.4c0,0,0.1,0,0.1,0c0.4,0,0.7,0,1.1,0c2.4,0.1,4.9,0.5,7.3,1.1c3.8,1,7.5,2.5,10.8,4.7   c1.8,1.1,3.4,2.4,4.8,3.7c0.4,0.4,0.8,0.8,1.2,1.2c0.1,0.1,0.3,0.3,0.4,0.4c1.9,2,3.7,4.3,5.1,6.7c3.4,5.6,5.1,12.1,5.1,18.7   c0,2.1-0.8,4-2.3,5.5c-0.1,0.1-0.2,0.2-0.3,0.3C82.4,73.6,80.6,74.3,78.7,74.3z M17.3,69.1C17.3,69.1,17.3,69.2,17.3,69.1   c0.9,1.4,2.4,2.2,4,2.2h57.4c1.2,0,2.3-0.4,3.1-1.2c0.1-0.1,0.2-0.1,0.2-0.2c0.9-0.9,1.4-2.1,1.4-3.4c0-6-1.6-12-4.7-17.1   c-1.3-2.2-2.9-4.3-4.7-6.2c-0.1-0.1-0.2-0.2-0.4-0.4c-0.4-0.4-0.8-0.7-1.1-1.1c-1.3-1.2-2.8-2.4-4.4-3.4c-3.1-2-6.4-3.4-9.9-4.3   c-2.2-0.6-4.4-0.9-6.7-1c-0.4,0-0.7,0-1.1,0l-0.5,0c-2.5,0-5,0.3-7.4,0.8c-3.2,0.7-6.3,1.9-9.2,3.6c-2.1,1.2-4,2.6-5.8,4.2   c0,0-0.1,0.1-0.1,0.1l-0.1,0.1c0,0-0.1,0.1-0.1,0.1c-0.3,0.3-0.6,0.6-0.9,0.9c-1.7,1.7-3.3,3.6-4.6,5.7c-3.4,5.4-5.2,11.6-5.2,18   C16.5,67.5,16.8,68.4,17.3,69.1z M16.1,71.5c-0.3,0-0.6-0.1-0.8-0.3c-4.9-3.3-7.8-8.8-7.8-14.6c0-6.3,3.2-11.9,8.6-15.1   c2.7-1.6,5.9-2.5,9.1-2.5c0.4,0,0.7,0,1.1,0c0.6,0,1.1,0.4,1.3,1c0,0.1,0,0.1,0.1,0.2c0.3,0.6,0.2,1.3-0.3,1.8L27.3,42   c-0.3,0.3-0.6,0.6-0.9,0.9c-0.8,0.8-1.5,1.6-2.2,2.4c-0.3,0.3-0.5,0.7-0.8,1c-0.6,0.8-1.1,1.5-1.6,2.3c-3.4,5.4-5.2,11.6-5.2,18   c0,1,0.3,1.9,0.8,2.7c0.4,0.6,0.3,1.4-0.2,1.9C16.9,71.4,16.5,71.5,16.1,71.5z M22.9,42.2c-1.8,0.3-3.6,0.9-5.2,1.9   c-4.5,2.7-7.1,7.4-7.1,12.6c0,3.3,1.1,6.4,3.1,9c0.2-6.6,2.1-13.1,5.7-18.7c0.5-0.8,1.1-1.6,1.7-2.5c0.3-0.4,0.6-0.7,0.9-1.1   C22.2,43,22.5,42.6,22.9,42.2z M82.8,72.7c-0.5,0-1-0.2-1.2-0.7c-0.4-0.6-0.3-1.5,0.2-1.9c0.1-0.1,0.2-0.1,0.2-0.2   c0.9-0.9,1.4-2.1,1.4-3.4c0-6-1.6-12-4.7-17.1c-0.2-0.4-0.4-0.7-0.7-1.1c-0.8-1.3-1.8-2.6-2.8-3.7l-0.1-0.2   c-0.1-0.1-0.2-0.2-0.3-0.3c-0.3-0.3-0.6-0.6-0.8-0.9c-0.5-0.5-0.6-1.2-0.2-1.8c0.3-0.5,0.5-1,0.7-1.5c0.2-0.6,0.8-1,1.4-1   c3.6,0,7,1.1,9.9,3c4.9,3.3,7.8,8.8,7.8,14.6c0,6.8-3.9,13-10.1,15.9C83.3,72.7,83,72.7,82.8,72.7z M77,42C77,42,77,42.1,77,42   c0.1,0.2,0.3,0.3,0.4,0.4l0.1,0.1c1.1,1.3,2.2,2.7,3.1,4.1c0.2,0.4,0.5,0.8,0.7,1.2c3.4,5.6,5.1,12.1,5.1,18.7c0,0.1,0,0.2,0,0.2   c2.6-2.7,4.1-6.3,4.1-10.1c0-4.9-2.4-9.4-6.4-12.1C82,43.1,79.5,42.2,77,42z M26.6,42c0,0-0.1,0-0.1,0l-0.4,0   c-0.6,0-1.1-0.4-1.3-0.9c-0.7-1.7-1-3.4-1-5.3c0-1.5,0.2-3,0.7-4.4c1.9-6,7.4-10.1,13.8-10.1c2.2,0,4.4,0.5,6.3,1.5   c3.4,1.7,6.1,4.7,7.3,8.2c0.2,0.5,0.1,1-0.2,1.4c-0.3,0.4-0.7,0.6-1.2,0.6H50c-0.4,0-0.7,0-1,0c0,0-0.1,0-0.1,0   c-0.4,0-0.8,0-1.3,0.1l-1.3,0.1c-0.3,0-0.5,0.1-0.8,0.1c-0.3,0-0.7,0.1-1,0.2c-0.7,0.1-1.3,0.2-2,0.4c-3.2,0.7-6.3,1.9-9.2,3.6   c-0.3,0.1-0.5,0.3-0.7,0.4c0,0-0.1,0-0.1,0.1c-0.1,0.1-0.3,0.2-0.4,0.3c-0.4,0.2-0.7,0.5-1.1,0.7c-0.4,0.3-0.7,0.5-1.1,0.8   c-0.5,0.3-0.9,0.7-1.3,1c-0.4,0.3-0.7,0.6-1,0.9C27.3,41.9,27,42,26.6,42z M38.2,24.4c-5,0-9.4,3.2-10.9,8   c-0.4,1.1-0.5,2.3-0.5,3.4c0,0.8,0.1,1.6,0.3,2.4c0.4-0.3,0.8-0.6,1.1-0.9c0.4-0.3,0.8-0.6,1.2-0.8c0.4-0.3,0.7-0.5,1.1-0.8   c0.2-0.1,0.4-0.2,0.6-0.4c0.3-0.2,0.6-0.3,0.8-0.5c3.1-1.8,6.5-3.1,10-3.9c0.8-0.2,1.5-0.3,2.1-0.4c0.3-0.1,0.7-0.1,1.1-0.2   c0.3,0,0.6-0.1,0.9-0.1l1.4-0.1c0.3,0,0.5,0,0.7,0c-1.1-2-2.9-3.6-4.9-4.6C41.7,24.8,39.9,24.4,38.2,24.4z M73.5,42.2   c-0.4,0-0.7-0.1-1-0.4c-0.4-0.4-0.8-0.7-1.2-1.1c-0.3-0.2-0.5-0.4-0.7-0.6c-0.5-0.4-0.9-0.7-1.3-1c-0.3-0.2-0.6-0.4-0.9-0.6   c-3.2-2.1-6.6-3.6-10.2-4.5c-0.5-0.1-6.1-0.9-6.7-1c-0.5,0-0.9-0.3-1.2-0.7c-0.3-0.4-0.3-0.9-0.2-1.3c1.2-3.3,3.5-6,6.5-7.8   c2.2-1.2,4.6-1.9,7.1-1.9c6.4,0,11.9,4.1,13.8,10.2c0.4,1.4,0.6,2.8,0.6,4.3c0,1.8-0.3,3.5-0.9,5.1c-0.2,0.6-0.8,1-1.4,1   c-0.7,0-1.4,0.1-2.1,0.2C73.7,42.2,73.6,42.2,73.5,42.2z M53.8,30.4c2,0.3,4.8,0.7,5.2,0.8c3.9,1,7.7,2.6,11.1,4.9   c0.3,0.2,0.7,0.4,1,0.7c0.5,0.3,0.9,0.7,1.4,1c0.2,0.2,0.5,0.4,0.8,0.7c0.3,0.2,0.5,0.4,0.8,0.7c0.3,0,0.5-0.1,0.8-0.1   c0.3-1,0.4-2.1,0.4-3.1c0-1.1-0.2-2.3-0.5-3.4c-1.5-4.8-5.9-8.1-10.9-8.1c-2,0-3.9,0.5-5.7,1.5C56.3,27,54.8,28.5,53.8,30.4z    M16.9,44.3c-0.2,0-0.4,0-0.6-0.1c-0.4-0.2-0.8-0.5-0.9-1c-0.3-0.9-0.4-1.8-0.4-2.7c0-5.6,4.5-10.1,10.1-10.1c0.3,0,0.6,0,0.8,0   c0.5,0,0.9,0.3,1.1,0.7s0.3,0.9,0.2,1.3c-0.4,1.1-0.5,2.3-0.5,3.4c0,1.4,0.3,2.8,0.8,4.2c0.2,0.5,0.1,1-0.2,1.4   c-0.3,0.4-0.8,0.6-1.3,0.6c-0.3,0-0.6,0-0.9,0c-2.6,0-5.2,0.7-7.5,2.1C17.4,44.2,17.1,44.3,16.9,44.3z M24,33.5   c-3.3,0.6-5.9,3.5-5.9,7c1.9-0.8,4-1.3,6.1-1.5c-0.2-1-0.4-2.1-0.4-3.2C23.8,35,23.8,34.2,24,33.5z M84.9,44.8   c-0.3,0-0.6-0.1-0.8-0.3c-2.4-1.6-5.3-2.5-8.2-2.5c-0.5,0-1-0.2-1.2-0.6c-0.3-0.4-0.3-0.9-0.2-1.4c0.5-1.3,0.7-2.7,0.7-4.1   c0-1.1-0.2-2.3-0.5-3.4c-0.1-0.4-0.1-0.9,0.2-1.3c0.3-0.4,0.7-0.6,1.1-0.6c0.2,0,0.4,0,0.7,0c5.6,0,10.1,4.5,10.1,10.1   c0,1-0.2,2.1-0.5,3.1c-0.1,0.5-0.5,0.8-0.9,1C85.3,44.7,85.1,44.8,84.9,44.8z M77.9,39.1c2.1,0.2,4.1,0.8,6,1.8c0-0.1,0-0.1,0-0.2   c0-3.5-2.5-6.4-5.8-7c0.1,0.7,0.2,1.5,0.2,2.2C78.2,37,78.1,38,77.9,39.1z M51.6,33.1C51.5,33.1,51.5,33.1,51.6,33.1   c-0.4,0-0.8,0-1.1,0c-0.6,0-1.3-0.4-1.5-1c-1-2.8-3.1-5.2-5.8-6.5c-0.4-0.2-0.7-0.6-0.8-1c-0.1-0.5,0-0.9,0.3-1.3   c1.9-2.3,4.7-3.6,7.7-3.6c3.2,0,6.3,1.6,8.2,4.2c0.3,0.3,0.3,0.8,0.3,1.2c-0.1,0.4-0.4,0.8-0.7,1c-2.4,1.4-4.2,3.5-5.1,6.1   C52.8,32.7,52.2,33.1,51.6,33.1z M46.4,23.9c2,1.3,3.6,3.2,4.7,5.3c1-1.9,2.4-3.5,4.1-4.8c-1.3-1.1-2.9-1.8-4.7-1.8   C48.9,22.6,47.5,23.1,46.4,23.9z M36.5,55.5c-3.2,0-5.7-2.6-5.7-5.7s2.6-5.7,5.7-5.7s5.7,2.6,5.7,5.7S39.6,55.5,36.5,55.5z    M36.5,47c-1.5,0-2.7,1.2-2.7,2.7s1.2,2.7,2.7,2.7s2.7-1.2,2.7-2.7S38,47,36.5,47z M65.3,63c-3.2,0-5.7-2.6-5.7-5.7   s2.6-5.7,5.7-5.7s5.7,2.6,5.7,5.7S68.5,63,65.3,63z M65.3,54.5c-1.5,0-2.7,1.2-2.7,2.7s1.2,2.7,2.7,2.7s2.7-1.2,2.7-2.7   S66.9,54.5,65.3,54.5z"/>

</g>

<g id="_x31_7"/>

<g id="_x31_8"/>

<g id="_x31_9"/>

<g id="_x32_0"/>

<g id="_x32_1"/>

<g id="_x32_2"/>

<g id="_x32_3"/>

<g id="_x32_4"/>

</svg>