<?xml version="1.0" ?>

<!DOCTYPE svg  PUBLIC '-//W3C//DTD SVG 1.1//EN'  'http://www.w3.org/Graphics/SVG/1.1/DTD/svg11.dtd'>

<!-- Uploaded to: SVG Repo, www.svgrepo.com, Generator: SVG Repo Mixer Tools -->
<svg fill="#000000" width="800px" height="800px" viewBox="0 0 100 100" version="1.1" xml:space="preserve"
     xmlns="http://www.w3.org/2000/svg">

<g id="_x31_"/>

<g id="_x32_"/>

<g id="_x33_"/>

<g id="_x34_"/>

<g id="_x35_"/>

<g id="_x36_"/>

<g id="_x37_"/>

<g id="_x38_"/>

<g id="_x39_"/>

<g id="_x31_0"/>

<g id="_x31_1"/>

<g id="_x31_2"/>

<g id="_x31_3"/>

<g id="_x31_4"/>

<g id="_x31_5"/>

<g id="_x31_6"/>

<g id="_x31_7"/>

<g id="_x31_8"/>

<g id="_x31_9"/>

<g id="_x32_0"/>

<g id="_x32_1"/>

<g id="_x32_2">

<path d="M78,83.8H22c-3.7,0-7-1.9-8.8-5.1c-1.8-3.2-1.8-7,0-10.2l28-48.5C43,16.9,46.3,15,50,15s7,1.9,8.8,5.1l28,48.5   c1.8,3.2,1.8,7,0,10.2C85,81.9,81.7,83.8,78,83.8z M50,18c-2.6,0-4.9,1.3-6.2,3.6l-28,48.5c-1.3,2.2-1.3,4.9,0,7.2   c1.3,2.2,3.6,3.6,6.2,3.6h56c2.6,0,4.9-1.3,6.2-3.6c1.3-2.2,1.3-4.9,0-7.2l-28-48.5C54.9,19.3,52.6,18,50,18z M69.2,83.8H30.8   c-0.8,0-1.5-0.7-1.5-1.5V71c0-4.2,3.4-7.7,7.7-7.7h26c4.2,0,7.7,3.4,7.7,7.7v11.3C70.7,83.1,70,83.8,69.2,83.8z M32.3,80.8h35.3V71   c0-2.6-2.1-4.7-4.7-4.7H37c-2.6,0-4.7,2.1-4.7,4.7V80.8z M50,42c-2.7,0-5-2.2-5-5s2.2-5,5-5s5,2.2,5,5S52.7,42,50,42z M50,35   c-1.1,0-2,0.9-2,2s0.9,2,2,2s2-0.9,2-2S51.1,35,50,35z M40,54c-2.7,0-5-2.2-5-5s2.2-5,5-5s5,2.2,5,5S42.7,54,40,54z M40,47   c-1.1,0-2,0.9-2,2s0.9,2,2,2s2-0.9,2-2S41.1,47,40,47z M60,54c-2.7,0-5-2.2-5-5s2.2-5,5-5s5,2.2,5,5S62.7,54,60,54z M60,47   c-1.1,0-2,0.9-2,2s0.9,2,2,2s2-0.9,2-2S61.1,47,60,47z"/>

</g>

<g id="_x32_3"/>

<g id="_x32_4"/>

</svg>