<?xml version="1.0" ?>

<!DOCTYPE svg  PUBLIC '-//W3C//DTD SVG 1.1//EN'  'http://www.w3.org/Graphics/SVG/1.1/DTD/svg11.dtd'>

<!-- Uploaded to: SVG Repo, www.svgrepo.com, Generator: SVG Repo Mixer Tools -->
<svg fill="#000000" width="800px" height="800px" viewBox="0 0 100 100" version="1.1" xml:space="preserve"
     xmlns="http://www.w3.org/2000/svg">

<g id="_x31_"/>

<g id="_x32_"/>

<g id="_x33_"/>

<g id="_x34_"/>

<g id="_x35_"/>

<g id="_x36_"/>

<g id="_x37_"/>

<g id="_x38_"/>

<g id="_x39_"/>

<g id="_x31_0"/>

<g id="_x31_1"/>

<g id="_x31_2"/>

<g id="_x31_3"/>

<g id="_x31_4"/>

<g id="_x31_5"/>

<g id="_x31_6"/>

<g id="_x31_7"/>

<g id="_x31_8">

<path d="M18.9,71c-0.3,0-0.5-0.1-0.7-0.2c-0.7-0.4-1.4-0.9-2-1.5c-1.8-1.8-2.7-4.1-2.7-6.6c0-2.5,1-4.8,2.7-6.6l41.2-41.2   c1.8-1.8,4.1-2.7,6.6-2.7s4.8,1,6.6,2.7l0,0l0,0c0.6,0.6,1.1,1.3,1.5,2c0.2,0.4,0.3,0.9,0,1.4c-0.2,0.4-0.6,0.7-1.1,0.8   c-1.3,0.2-2.5,0.8-3.4,1.8L22.1,66.3c-0.9,0.9-1.6,2.1-1.8,3.4c-0.1,0.5-0.4,0.9-0.8,1.1C19.3,70.9,19.1,71,18.9,71z M63.9,15.1   c-1.7,0-3.3,0.7-4.5,1.9L18.3,58.2c-1.2,1.2-1.9,2.8-1.9,4.5c0,1.6,0.6,3.1,1.7,4.3c0.5-1,1.1-2,1.9-2.8l45.4-45.4   c0.8-0.8,1.8-1.5,2.8-1.9C67,15.7,65.5,15.1,63.9,15.1z M35.4,84.7c-2.5,0-4.8-1-6.6-2.7c-0.9-0.9-1.5-1.9-2-3   c-0.5-1.1-0.7-2.4-0.7-3.6c0-2.5,1-4.8,2.7-6.6L70,27.6c2.7-2.7,6.7-3.5,10.2-2c1.1,0.5,2.1,1.1,3,2c1.8,1.8,2.7,4.1,2.7,6.6   c0,2.5-1,4.8-2.7,6.6L42,82C40.3,83.7,37.9,84.7,35.4,84.7z M76.6,27.8c-1.6,0-3.3,0.6-4.5,1.9L31,70.9c-1.2,1.2-1.9,2.8-1.9,4.5   c0,0.9,0.2,1.7,0.5,2.5c0.3,0.7,0.8,1.4,1.4,2c1.2,1.2,2.8,1.9,4.5,1.9c1.7,0,3.3-0.7,4.5-1.9l41.2-41.2c1.2-1.2,1.9-2.8,1.9-4.5   c0-1.7-0.7-3.3-1.9-4.5c0,0,0,0,0,0c-0.6-0.6-1.3-1-2-1.4C78.3,28,77.4,27.8,76.6,27.8z M26.6,80.1c-2.4,0-4.8-1-6.6-2.7   c-1.8-1.8-2.7-4.1-2.7-6.6c0-0.6,0-1.1,0.2-1.6c0.3-1.8,1.2-3.6,2.6-5l45.4-45.4c1.4-1.4,3.2-2.3,5.1-2.6c3-0.5,6,0.5,8.1,2.6l0,0   c1.8,1.8,2.7,4.1,2.7,6.6c0,0.7-0.1,1.3-0.2,1.9c-0.1,0.4-0.4,0.8-0.8,1c-0.4,0.2-0.9,0.2-1.3,0.1c-2.4-1-5.1-0.5-6.9,1.4L31,70.9   c-1.2,1.2-1.9,2.8-1.9,4.5c0,0.9,0.2,1.7,0.5,2.5c0.2,0.4,0.2,0.9-0.1,1.3c-0.2,0.4-0.6,0.7-1,0.8C27.9,80,27.2,80.1,26.6,80.1z    M72,19c-0.3,0-0.7,0-1,0.1c-1.3,0.2-2.5,0.8-3.5,1.8L22.1,66.3c-0.9,0.9-1.6,2.1-1.8,3.4c-0.1,0.4-0.1,0.7-0.1,1.1   c0,1.7,0.7,3.3,1.9,4.5c1.1,1.1,2.6,1.8,4.1,1.8c-0.1-0.6-0.2-1.1-0.2-1.7c0-2.5,1-4.8,2.7-6.6L70,27.6c2.2-2.2,5.3-3.2,8.3-2.6   c-0.1-1.6-0.7-3-1.8-4.1l0,0C75.3,19.7,73.7,19,72,19z M27.9,66c3.3-0.2,9.8-2.6,10.8-10.7c0.8-7,6.6-7.7,7.6-7.8   c0.8,0.1,3.6,0.4,5.9-1.5c1.9-1.5,2.9-4,3-7.3c0.2-7.1,9.9-9.7,10-9.7c0.8-0.2,1.3-1,1.1-1.8s-1-1.3-1.8-1.1   c-0.5,0.1-12,3.1-12.3,12.6c-0.1,2.4-0.7,4.1-1.9,5c-1.5,1.2-3.7,0.9-3.7,0.9c-0.1,0-0.2,0-0.3,0C43,44.6,36.6,46.9,35.7,55   c-0.9,7.5-7.6,8-7.9,8c-0.8,0-1.5,0.7-1.4,1.6C26.4,65.4,27,66,27.9,66C27.9,66,27.9,66,27.9,66z M73.6,39.3l1.5-1.5   c0.6-0.6,0.6-1.5,0-2.1s-1.5-0.6-2.1,0l-1.5,1.5c-0.6,0.6-0.6,1.5,0,2.1c0.3,0.3,0.7,0.4,1.1,0.4S73.3,39.6,73.6,39.3z M45.3,67.6   l1.5-1.5c0.6-0.6,0.6-1.5,0-2.1c-0.6-0.6-1.5-0.6-2.1,0l-1.5,1.5c-0.6,0.6-0.6,1.5,0,2.1c0.3,0.3,0.7,0.4,1.1,0.4   C44.6,68.1,45,67.9,45.3,67.6z"/>

</g>

<g id="_x31_9"/>

<g id="_x32_0"/>

<g id="_x32_1"/>

<g id="_x32_2"/>

<g id="_x32_3"/>

<g id="_x32_4"/>

</svg>