<?xml version="1.0" ?>

<!DOCTYPE svg  PUBLIC '-//W3C//DTD SVG 1.1//EN'  'http://www.w3.org/Graphics/SVG/1.1/DTD/svg11.dtd'>

<!-- Uploaded to: SVG Repo, www.svgrepo.com, Generator: SVG Repo Mixer Tools -->
<svg fill="#000000" width="800px" height="800px" viewBox="0 0 100 100" version="1.1" xml:space="preserve"
     xmlns="http://www.w3.org/2000/svg">

<g id="_x31_"/>

<g id="_x32_"/>

<g id="_x33_"/>

<g id="_x34_"/>

<g id="_x35_"/>

<g id="_x36_"/>

<g id="_x37_"/>

<g id="_x38_"/>

<g id="_x39_">

<path d="M62.3,91.9H35.7c-5.1,0-9.3-4.2-9.3-9.3V63.3c0-0.8,0.7-1.5,1.5-1.5h42.2c0.8,0,1.5,0.7,1.5,1.5v19.3   C71.6,87.7,67.4,91.9,62.3,91.9z M29.4,64.8v17.8c0,3.5,2.8,6.3,6.3,6.3h26.6c3.5,0,6.3-2.8,6.3-6.3V64.8H29.4z M66.8,64.8H31.2   c-0.8,0-1.5-0.7-1.5-1.5V41.5c0-0.5,0.3-1,0.7-1.3c0.2-0.1,0.5-0.3,0.7-0.4c2.8-1.4,6.4-2.3,10.8-2.5c2.1-0.1,4.1-0.6,5.9-1.5   c5.6-2.6,9.1-8,11.2-12.1c0.3-0.5,0.8-0.8,1.3-0.8h6.4c0.8,0,1.5,0.7,1.5,1.5v39C68.3,64.1,67.7,64.8,66.8,64.8z M32.7,61.8h32.6   v-36h-4c-2.3,4.4-6.2,9.8-12.2,12.6c-2.2,1-4.6,1.6-7,1.8c-3.9,0.2-7.1,1-9.5,2.1V61.8z M31.2,43c-0.2,0-0.5-0.1-0.7-0.2   c-0.5-0.3-0.8-0.8-0.8-1.3V24.3c0-0.8,0.7-1.5,1.5-1.5h8.5c0.6,0,1.2,0.4,1.4,1c0.5,1.3,1.1,2.6,1.6,3.9c0.4,0.9,0.8,1.7,1.3,2.5   c0.9,1.7,1.9,3.3,2.9,4.7l0.3,0.3c0,0,0.1,0.1,0.1,0.1l0.9,0.9c0.3,0.3,0.5,0.8,0.5,1.2s-0.3,0.9-0.7,1.1c-0.1,0.1-0.2,0.1-0.3,0.2   l-0.1,0.1c-2.1,1.2-4.9,1.4-7.2,1.5l-0.2,0c-0.5,0-1.1,0.1-1.6,0.2c-2.5,0.3-4.5,1-6.1,2c-0.2,0.1-0.4,0.2-0.6,0.4   C31.8,42.9,31.5,43,31.2,43z M32.7,25.8V39c1.6-0.7,3.5-1.2,5.7-1.5c0.6-0.1,1.1-0.1,1.7-0.2l0.2,0c1.4-0.1,3-0.2,4.3-0.5   c-1.1-1.6-2.2-3.3-3.2-5.2c-0.4-0.8-0.9-1.7-1.3-2.6c-0.5-1-0.9-2.1-1.4-3.1H32.7z M47.7,38.7L47.7,38.7c0.2-0.1,0.3-0.2,0.4-0.2   c0.4-0.3,0.6-0.7,0.7-1.1s-0.1-0.9-0.5-1.2l-1-0.9c-0.5-0.5-1.4-0.6-2-0.1c-0.6,0.5-0.7,1.3-0.3,1.9c0,0.1,0.1,0.2,0.1,0.2   c0.1,0.4,0.4,0.9,0.9,1.3c0.3,0.2,0.6,0.3,0.9,0.3C47.2,38.9,47.5,38.9,47.7,38.7z M57.7,30.1c-0.4,0-0.8-0.2-1.1-0.5   c-1.8-2-4.4-3.2-7.2-3.2c-2.6,0-5.1,1-6.9,2.9c-0.3,0.4-0.8,0.5-1.3,0.4c-0.5-0.1-0.9-0.4-1.1-0.8c-0.5-1-0.9-2.1-1.4-3.1h-7.5   c-0.8,0-1.4-0.6-1.5-1.3c0-0.4-0.1-0.7-0.1-1.1c0-5.4,4.3-9.7,9.6-9.7c0.5,0,1,0,1.5,0.1c2.9-3.6,7.3-5.8,12-5.8   c8.5,0,15.5,7,15.5,15.6c0,0.3,0,0.5,0,0.8c-0.1,0.8-0.7,1.3-1.5,1.3h-5.5c-0.7,1.2-1.5,2.5-2.4,3.8C58.6,29.9,58.2,30.1,57.7,30.1   C57.7,30.1,57.7,30.1,57.7,30.1z M49.4,23.4c3,0,5.8,1.1,8.1,2.9c0.6-0.9,1.2-1.9,1.6-2.7c0.3-0.5,0.8-0.8,1.3-0.8h4.9   C64.9,16.2,59.5,11,52.9,11c-4,0-7.8,2-10.2,5.3c-0.4,0.5-1,0.8-1.6,0.6c-0.6-0.2-1.2-0.2-1.8-0.2c-3.5,0-6.3,2.7-6.6,6.1h7   c0.6,0,1.2,0.4,1.4,1c0.3,0.7,0.5,1.4,0.8,2.1C44.1,24.3,46.7,23.4,49.4,23.4z M47.3,39.1c-0.2,0-0.3,0-0.5-0.1   c-0.3-0.1-0.5-0.2-0.7-0.4c-0.4-0.3-0.6-0.7-0.6-1.1l-0.2-0.2c-0.1-0.1-0.2-0.2-0.2-0.3c-0.2-0.1-0.3-0.2-0.4-0.4   c-1.1-1.6-2.2-3.3-3.2-5.2c-0.4-0.8-0.9-1.7-1.3-2.6c-0.3-0.6-0.2-1.2,0.3-1.7c2.4-2.5,5.6-3.8,9.1-3.8c3.6,0,7,1.5,9.4,4.2   c0.5,0.5,0.5,1.3,0.1,1.9c-1.9,2.5-5.7,7-11,9.4C47.7,39.1,47.5,39.1,47.3,39.1z M47.4,35.3l0.4,0.3c2.7-1.5,5.5-4,7.9-6.9   c-1.7-1.5-4-2.3-6.3-2.3c-2.3,0-4.4,0.8-6.1,2.2c0.3,0.5,0.5,1,0.8,1.5c0.9,1.7,1.9,3.2,2.9,4.6C47.1,34.9,47.3,35.1,47.4,35.3z    M57.4,43.6L60,41c0.6-0.6,0.6-1.5,0-2.1s-1.5-0.6-2.1,0l-2.6,2.6c-0.6,0.6-0.6,1.5,0,2.1c0.3,0.3,0.7,0.4,1.1,0.4   S57.1,43.9,57.4,43.6z M57.4,56.3l2.6-2.6c0.6-0.6,0.6-1.5,0-2.1s-1.5-0.6-2.1,0l-2.6,2.6c-0.6,0.6-0.6,1.5,0,2.1   c0.3,0.3,0.7,0.4,1.1,0.4S57.1,56.6,57.4,56.3z M48.3,81.8c0-0.8-0.7-1.5-1.5-1.5H36.2c-0.8,0-1.5,0.7-1.5,1.5s0.7,1.5,1.5,1.5   h10.6C47.6,83.3,48.3,82.7,48.3,81.8z"/>

</g>

<g id="_x31_0"/>

<g id="_x31_1"/>

<g id="_x31_2"/>

<g id="_x31_3"/>

<g id="_x31_4"/>

<g id="_x31_5"/>

<g id="_x31_6"/>

<g id="_x31_7"/>

<g id="_x31_8"/>

<g id="_x31_9"/>

<g id="_x32_0"/>

<g id="_x32_1"/>

<g id="_x32_2"/>

<g id="_x32_3"/>

<g id="_x32_4"/>

</svg>