<?xml version="1.0" ?>

<!DOCTYPE svg  PUBLIC '-//W3C//DTD SVG 1.1//EN'  'http://www.w3.org/Graphics/SVG/1.1/DTD/svg11.dtd'>

<!-- Uploaded to: SVG Repo, www.svgrepo.com, Generator: SVG Repo Mixer Tools -->
<svg fill="#000000" width="800px" height="800px" viewBox="0 0 100 100" version="1.1" xml:space="preserve"
     xmlns="http://www.w3.org/2000/svg">

<g id="_x31_"/>

<g id="_x32_"/>

<g id="_x33_"/>

<g id="_x34_"/>

<g id="_x35_"/>

<g id="_x36_"/>

<g id="_x37_"/>

<g id="_x38_"/>

<g id="_x39_"/>

<g id="_x31_0">

<path d="M50.9,50c-0.2,0-0.4,0-0.6,0h-1.2c-10.4,0-19.4,0-26.1-0.9c-5.2-0.7-12-2.2-12-7.5c0-5.3,7.5-10.4,19.6-13.1   c2.4-0.5,4.8-1,7.3-1.3c2.8-0.4,5.7-0.6,8.7-0.7c1.1,0,2.1-0.1,3.2-0.1c1.4,0,2.7,0,4,0.1c3,0.1,6,0.4,9,0.8c2.6,0.4,5,0.8,7.2,1.4   c11.6,2.8,18.5,7.7,18.5,12.9c0,5.3-6.9,6.8-12,7.5C69.8,49.9,61,50,50.9,50z M49.7,47h0.6c9.9,0,19.2,0,25.7-0.8   c6.2-0.8,9.4-2.3,9.4-4.5c0-3-5-7.2-16.2-10c-2.1-0.5-4.5-1-6.9-1.3c-2.9-0.4-5.8-0.7-8.7-0.8c-1.2-0.1-2.5-0.1-3.8-0.1   c-1,0-2.1,0-3.1,0.1c-2.8,0.1-5.6,0.3-8.4,0.7c-2.3,0.3-4.7,0.7-7,1.2C19.4,34.1,14,38.6,14,41.6c0,2.2,3.2,3.7,9.4,4.5   C29.9,47,39.2,47,49.1,47H49.7z M73.9,74.1H25.1c-5.5,0-10-4.5-10-10v-0.1c0-0.8,0.7-1.5,1.5-1.5h65.8c0.8,0,1.5,0.7,1.5,1.5v0.1   C83.9,69.6,79.4,74.1,73.9,74.1z M18.3,65.4c0.6,3.2,3.5,5.7,6.9,5.7h48.8c3.4,0,6.2-2.4,6.9-5.7H18.3z M82.7,65.4H17.3   c-3.1,0-5.7-2.5-5.7-5.7c0-1.5,0.6-2.9,1.7-4c1.1-1.1,2.5-1.7,4-1.7h2.3c0.8,0,1.5,0.7,1.5,1.5c0,2.5,2,4.5,4.5,4.5s4.5-2,4.5-4.5   c0-0.8,0.7-1.5,1.5-1.5H44c0.8,0,1.5,0.7,1.5,1.5c0,2.5,2,4.5,4.5,4.5s4.5-2,4.5-4.5c0-0.8,0.7-1.5,1.5-1.5h12   c0.8,0,1.5,0.7,1.5,1.5c0,2.5,2,4.5,4.5,4.5s4.5-2,4.5-4.5c0-0.8,0.7-1.5,1.5-1.5h2.7c3.1,0,5.7,2.6,5.7,5.7c0,1.5-0.6,2.9-1.7,4   C85.6,64.8,84.2,65.4,82.7,65.4z M77,62.4h5.7c0.7,0,1.4-0.3,1.9-0.8c0.5-0.5,0.8-1.2,0.8-1.9c0-1.5-1.2-2.7-2.7-2.7h-1.3   C80.9,59.4,79.2,61.4,77,62.4z M53,62.4h18c-2.2-1-3.9-3-4.3-5.4h-9.3C56.9,59.4,55.2,61.4,53,62.4z M28.6,62.4H47   c-2.2-1-3.9-3-4.3-5.4H33C32.5,59.4,30.8,61.4,28.6,62.4z M17.3,57c-0.7,0-1.4,0.3-1.9,0.8c-0.5,0.5-0.8,1.2-0.8,1.9   c0,1.5,1.2,2.7,2.7,2.7h5.3c-2.2-1-3.9-3-4.3-5.4H17.3z M74,63c-3.6,0-6.7-2.6-7.3-6h-9.3c-0.7,3.4-3.7,6-7.3,6s-6.7-2.6-7.3-6H33   c-0.7,3.4-3.7,6-7.3,6c-4.1,0-7.5-3.4-7.5-7.5v-7.1c0-0.8,0.7-1.5,1.5-1.5H80c0.8,0,1.5,0.7,1.5,1.5v7.1C81.5,59.6,78.1,63,74,63z    M56,54h12c0.8,0,1.5,0.7,1.5,1.5c0,2.5,2,4.5,4.5,4.5s4.5-2,4.5-4.5v-5.6H21.1v5.6c0,2.5,2,4.5,4.5,4.5s4.5-2,4.5-4.5   c0-0.8,0.7-1.5,1.5-1.5H44c0.8,0,1.5,0.7,1.5,1.5c0,2.5,2,4.5,4.5,4.5s4.5-2,4.5-4.5C54.5,54.7,55.2,54,56,54z M34.4,41.6   c-2.8,0-5.1-2.3-5.1-5.1v-6.6c0-0.7,0.5-1.3,1.2-1.5c2.4-0.5,4.8-1,7.3-1.3c0.4-0.1,0.9,0.1,1.2,0.4c0.3,0.3,0.5,0.7,0.5,1.1v7.9   C39.5,39.3,37.2,41.6,34.4,41.6z M32.4,31.2v5.4c0,1.1,0.9,2.1,2.1,2.1c1.1,0,2.1-0.9,2.1-2.1v-6.1C35.1,30.6,33.7,30.9,32.4,31.2z    M50,41.6c-2.8,0-5-2.3-5-5.1V28c0-0.8,0.6-1.5,1.5-1.5c1.1,0,2.1-0.1,3.2-0.1c1.4,0,2.7,0,4,0.1c0.8,0,1.4,0.7,1.4,1.5v8.5   C55.1,39.3,52.8,41.6,50,41.6z M48,29.5v7.1c0,1.1,0.9,2.1,2,2.1s2-0.9,2-2.1v-7.1C50.8,29.4,49.4,29.4,48,29.5z M65.9,41.6   c-2.8,0-5-2.3-5-5.1v-7.7c0-0.4,0.2-0.8,0.5-1.1c0.3-0.3,0.8-0.4,1.2-0.4c2.6,0.4,5,0.8,7.2,1.4c0.7,0.2,1.1,0.8,1.1,1.5v6.4   C71,39.3,68.7,41.6,65.9,41.6z M63.9,30.6v6c0,1.1,0.9,2.1,2,2.1s2-0.9,2-2.1v-5.2C66.7,31.1,65.3,30.8,63.9,30.6z"/>

</g>

<g id="_x31_1"/>

<g id="_x31_2"/>

<g id="_x31_3"/>

<g id="_x31_4"/>

<g id="_x31_5"/>

<g id="_x31_6"/>

<g id="_x31_7"/>

<g id="_x31_8"/>

<g id="_x31_9"/>

<g id="_x32_0"/>

<g id="_x32_1"/>

<g id="_x32_2"/>

<g id="_x32_3"/>

<g id="_x32_4"/>

</svg>