<?xml version="1.0" ?>

<!DOCTYPE svg  PUBLIC '-//W3C//DTD SVG 1.1//EN'  'http://www.w3.org/Graphics/SVG/1.1/DTD/svg11.dtd'>

<!-- Uploaded to: SVG Repo, www.svgrepo.com, Generator: SVG Repo Mixer Tools -->
<svg fill="#000000" width="800px" height="800px" viewBox="0 0 100 100" version="1.1" xml:space="preserve"
     xmlns="http://www.w3.org/2000/svg">

<g id="_x31_"/>

<g id="_x32_"/>

<g id="_x33_"/>

<g id="_x34_"/>

<g id="_x35_"/>

<g id="_x36_">

<path d="M63.5,86.4c-6.9,0-13.4-3.2-17.6-8.7c-2.4,0.9-4.9,1.3-7.5,1.3c-12.3,0-22.3-10-22.3-22.3c0-5.5,2-10.7,5.6-14.8   c-0.4-1.7-0.6-3.5-0.6-5.3c0-12.3,10-22.3,22.3-22.3c6,0,11.7,2.4,15.9,6.7c0.4,0,0.9,0,1.3,0c12.3,0,22.3,10,22.3,22.3   c0,2.6-0.5,5.2-1.4,7.7c2.8,3.8,4.2,8.3,4.2,13.1C85.8,76.4,75.8,86.4,63.5,86.4z M46.4,74.4c0.5,0,0.9,0.2,1.2,0.6   c3.6,5.2,9.5,8.3,15.9,8.3c10.6,0,19.3-8.6,19.3-19.3c0-4.4-1.4-8.5-4.1-11.9c-0.3-0.4-0.4-1-0.2-1.5c1-2.3,1.5-4.8,1.5-7.4   c0-10.6-8.6-19.3-19.3-19.3c-0.6,0-1.2,0-1.8,0.1c-0.5,0-0.9-0.1-1.2-0.5c-3.6-4-8.8-6.3-14.2-6.3c-10.6,0-19.3,8.6-19.3,19.3   c0,1.8,0.2,3.5,0.7,5.3c0.1,0.5,0,1.1-0.4,1.4c-3.5,3.6-5.4,8.3-5.4,13.3c0,10.6,8.6,19.3,19.3,19.3c2.6,0,5.1-0.5,7.4-1.5   C46,74.4,46.2,74.4,46.4,74.4z M55.6,68.8c-8.9,0-16.2-7.3-16.2-16.2c0-8.9,7.3-16.2,16.2-16.2c8.9,0,16.2,7.3,16.2,16.2   C71.8,61.5,64.5,68.8,55.6,68.8z M55.6,39.4c-7.3,0-13.2,5.9-13.2,13.2c0,7.3,5.9,13.2,13.2,13.2c7.3,0,13.2-5.9,13.2-13.2   C68.8,45.3,62.9,39.4,55.6,39.4z M50,50.9c0-2.3,1.8-4.1,4.1-4.1c0.8,0,1.5-0.7,1.5-1.5s-0.7-1.5-1.5-1.5c-3.9,0-7.1,3.2-7.1,7.1   c0,0.8,0.7,1.5,1.5,1.5S50,51.7,50,50.9z M34.4,34.9c0.3-0.3,0.4-0.7,0.4-1.1c0-0.4-0.2-0.8-0.4-1.1c-0.6-0.6-1.6-0.6-2.1,0   c-0.3,0.3-0.4,0.7-0.4,1.1c0,0.4,0.2,0.8,0.4,1.1c0.3,0.3,0.7,0.4,1.1,0.4C33.7,35.3,34.1,35.2,34.4,34.9z M43.4,25.9   c0.3-0.3,0.4-0.7,0.4-1.1c0-0.4-0.2-0.8-0.4-1.1c-0.6-0.6-1.6-0.6-2.1,0c-0.3,0.3-0.4,0.7-0.4,1.1c0,0.4,0.2,0.8,0.4,1.1   c0.3,0.3,0.7,0.4,1.1,0.4C42.7,26.3,43.1,26.2,43.4,25.9z"/>

</g>

<g id="_x37_"/>

<g id="_x38_"/>

<g id="_x39_"/>

<g id="_x31_0"/>

<g id="_x31_1"/>

<g id="_x31_2"/>

<g id="_x31_3"/>

<g id="_x31_4"/>

<g id="_x31_5"/>

<g id="_x31_6"/>

<g id="_x31_7"/>

<g id="_x31_8"/>

<g id="_x31_9"/>

<g id="_x32_0"/>

<g id="_x32_1"/>

<g id="_x32_2"/>

<g id="_x32_3"/>

<g id="_x32_4"/>

</svg>