<?xml version="1.0" ?>

<!DOCTYPE svg  PUBLIC '-//W3C//DTD SVG 1.1//EN'  'http://www.w3.org/Graphics/SVG/1.1/DTD/svg11.dtd'>

<!-- Uploaded to: SVG Repo, www.svgrepo.com, Generator: SVG Repo Mixer Tools -->
<svg fill="#000000" width="800px" height="800px" viewBox="0 0 100 100" version="1.1" xml:space="preserve"
     xmlns="http://www.w3.org/2000/svg">

<g id="_x31_"/>

<g id="_x32_"/>

<g id="_x33_"/>

<g id="_x34_"/>

<g id="_x35_"/>

<g id="_x36_"/>

<g id="_x37_"/>

<g id="_x38_"/>

<g id="_x39_"/>

<g id="_x31_0"/>

<g id="_x31_1"/>

<g id="_x31_2"/>

<g id="_x31_3"/>

<g id="_x31_4"/>

<g id="_x31_5"/>

<g id="_x31_6"/>

<g id="_x31_7"/>

<g id="_x31_8"/>

<g id="_x31_9"/>

<g id="_x32_0"/>

<g id="_x32_1">

<path d="M85.6,82.7H71.3c9.4-4.7,15.9-14.4,15.9-25.6v-5.3c0-0.8-0.7-1.5-1.5-1.5h-71c-0.8,0-1.5,0.7-1.5,1.5v5.3   c0,11.2,6.5,20.9,15.9,25.6H14.7c-0.8,0-1.5,0.7-1.5,1.5s0.7,1.5,1.5,1.5h27c0.1,0,0.1,0,0.2,0h16.8c0.1,0,0.1,0,0.2,0h27   c0.8,0,1.5-0.7,1.5-1.5S86.5,82.7,85.6,82.7z M16.2,57.1v-3.8h68v3.8c0,14.1-11.4,25.5-25.5,25.6H41.6   C27.6,82.7,16.2,71.2,16.2,57.1z M87.1,37.6c0-6.5-5.3-11.8-11.8-11.8c-3.6,0-6.9,1.6-9.1,4.3c-1.9-0.4-4-0.4-5.9,0.2   c-0.2-0.5-0.4-0.9-0.6-1.4c-0.5-1-1-2.1-1.4-3.1c-2.7-5.8-4.8-10.4-8.1-11.7c-1.3-0.5-2.8-0.4-4.2,0.3c-4,1.9-8.2,8.3-8.9,15.3   c-3.2-2.2-5.1-6.1-6.8-9.6c-2-4.3-4.2-8.7-8.6-7.5c-4.8,1.3-9.7,6.9-11.4,13c-1.6,5.6-0.4,10.9,3.3,15c-0.2,0.3-0.3,0.6-0.3,0.9   v10.2c0,0.8,0.7,1.5,1.5,1.5h71c0.8,0,1.5-0.7,1.5-1.5V41.6c0-0.4-0.2-0.7-0.4-1C87,39.6,87.1,38.6,87.1,37.6z M75.3,28.8   c4.9,0,8.8,4,8.8,8.8c0,0.9-0.1,1.7-0.4,2.5H66.9c0,0,0-0.1,0-0.1c-0.1-0.3-0.2-0.6-0.2-1c0-0.1,0-0.2,0-0.3c0-0.4-0.1-0.8-0.1-1.1   c0-0.5,0-1,0.1-1.4c0.1-0.8,0.4-1.6,0.7-2.4c0-0.1,0.1-0.2,0.2-0.3c0.2-0.3,0.3-0.6,0.5-0.9C69.7,30.2,72.4,28.8,75.3,28.8z    M64.5,32.9c0,0,0,0.1-0.1,0.2c-0.1,0.3-0.2,0.6-0.3,0.8c0,0.1,0,0.1-0.1,0.2c-0.1,0.3-0.2,0.7-0.3,1c0,0.1,0,0.2,0,0.3   c-0.1,0.3-0.1,0.6-0.1,0.8c0,0.1,0,0.2,0,0.3c0,0.4-0.1,0.7-0.1,1.1c0,0.4,0,0.8,0.1,1.2c0,0.1,0,0.3,0.1,0.4   c0,0.3,0.1,0.5,0.1,0.8c0,0,0,0.1,0,0.1h-1.4c0-0.1,0-0.2,0-0.3c0-0.4,0-0.8-0.1-1.2c0-0.1,0-0.3,0-0.4c0-0.5-0.1-1-0.2-1.5   c0-0.1,0-0.2-0.1-0.3c-0.1-0.4-0.2-0.8-0.2-1.3c0-0.2-0.1-0.3-0.1-0.5c-0.1-0.4-0.2-0.9-0.4-1.3c0-0.1,0-0.2-0.1-0.2   C62.3,32.8,63.4,32.8,64.5,32.9z M47.2,17.2c1-0.4,1.5-0.3,1.9-0.2c2.2,0.8,4.2,5.3,6.4,10.1c0.5,1,0.9,2,1.4,3.1   c0.4,0.8,0.7,1.6,1,2.5c0.2,0.6,0.4,1.2,0.5,1.7c0,0.1,0.1,0.2,0.1,0.3c0.1,0.5,0.3,1.1,0.4,1.6c0,0.1,0,0.2,0.1,0.3   c0.1,0.5,0.2,1.1,0.2,1.6c0,0,0,0,0,0c0.1,0.5,0.1,1.1,0.1,1.6c0,0.1,0,0.1,0,0.2h-8.1c-1.9-2.8-1.3-5.1-1.3-5.3   c0.2-0.8-0.2-1.6-1-1.9c-0.8-0.2-1.6,0.2-1.9,1c0,0.1-0.8,2.8,0.7,6.1h-5.4c-0.1-0.2-0.2-0.4-0.3-0.6c-0.1-0.1-0.2-0.3-0.2-0.4   c-0.3-0.5-0.5-1-0.8-1.5c-0.8-1.7-1.2-3.5-1.2-5.4C39.7,25.8,43.7,18.9,47.2,17.2z M13.1,26.5c1.6-5.7,6-10.1,9.3-10.9   c1.9-0.5,3,1.4,5.2,5.9c2,4.2,4.4,9.4,9.4,11.8c0,0.1,0,0.3,0.1,0.4c0,0.2,0,0.4,0.1,0.6c0,0.3,0.1,0.7,0.2,1   c0,0.2,0.1,0.4,0.1,0.6c0.1,0.3,0.2,0.7,0.3,1c0.1,0.2,0.1,0.3,0.2,0.5c0.2,0.5,0.4,1,0.6,1.5c0.2,0.4,0.4,0.8,0.6,1.2h-9.2   c-6.3-3-5.2-8.2-5.1-8.5c0.2-0.8-0.3-1.6-1.1-1.8c-0.8-0.2-1.6,0.3-1.8,1.1c-0.5,2.1-0.3,6,2.9,9.2h-7.6c-0.4-0.4-0.8-0.8-1.1-1.3   C11.9,34.7,12.2,29.8,13.1,26.5z M84.1,50.3h-68v-7.2h0.2h25.3h19.2h5h18.3V50.3z M39.3,78.2c-7.7,0-11-6-11.7-9.5   c-0.2-0.8,0.4-1.6,1.2-1.8c0.8-0.2,1.6,0.4,1.8,1.2c0.1,0.3,1.8,8.2,10.6,6.9c0.8-0.1,1.6,0.5,1.7,1.3s-0.5,1.6-1.3,1.7   C40.8,78.2,40,78.2,39.3,78.2z"/>

</g>

<g id="_x32_2"/>

<g id="_x32_3"/>

<g id="_x32_4"/>

</svg>