<?xml version="1.0" encoding="utf-8"?>

<!-- Uploaded to: SVG Repo, www.svgrepo.com, Generator: SVG Repo Mixer Tools -->
<svg version="1.1" id="Icons" xmlns="http://www.w3.org/2000/svg"
     viewBox="0 0 32 32" xml:space="preserve">
<style type="text/css">
	.st0{fill:none;stroke:#000000;stroke-width:2;stroke-linecap:round;stroke-linejoin:round;stroke-miterlimit:10;}
</style>
<path class="st0" d="M11.4,4.1h9.3L22.5,9c1.1,2.8,0.4,6.1-1.8,8.1l0,0c-2.7,2.4-6.6,2.4-9.3,0l0,0C9.1,15,8.4,11.8,9.5,9L11.4,4.1z
	"/>
<path class="st0" d="M16,23.9c0,2.4-1.6,4.5-4,5.1l0,0l8,0"/>
<path class="st0" d="M16,18.9V22v1.9c0,2.4,1.6,4.5,4,5.1l0,0"/>
<path class="st0" d="M23,11.3c-2.4,0.4-5.1,0.7-8,0.7c-2.1,0-4.1-0.1-6-0.4"/>
</svg>