<?xml version="1.0" encoding="utf-8"?>

<!-- Uploaded to: SVG Repo, www.svgrepo.com, Generator: SVG Repo Mixer Tools -->
<svg version="1.1" id="Icons" xmlns="http://www.w3.org/2000/svg"
     viewBox="0 0 32 32" xml:space="preserve">
<style type="text/css">
	.st0{fill:none;stroke:#000000;stroke-width:2;stroke-linecap:round;stroke-linejoin:round;stroke-miterlimit:10;}
</style>
<path class="st0" d="M20,7v18c0,2.2-1.8,4-4,4h0c-2.2,0-4-1.8-4-4V7c0-2.2,1.8-4,4-4h0C18.2,3,20,4.8,20,7z"/>
<path class="st0" d="M12.1,26h-1.2C8.8,26,7,24.2,7,22.1V9.9C7,7.8,8.8,6,10.9,6h1.2"/>
<path class="st0" d="M19.9,6h1.2C23.2,6,25,7.8,25,9.9v12.1c0,2.2-1.8,3.9-3.9,3.9h-1.2"/>
<path class="st0" d="M17,25l-1-1.5c-0.6-0.9-0.6-2.1,0-3l0,0c0.6-0.9,0.6-2.1,0-3l0,0c-0.6-0.9-0.6-2.1,0-3l0,0c0.6-0.9,0.6-2.1,0-3
	l0,0c-0.6-0.9-0.6-2.1,0-3L17,7"/>
</svg>